<mxfile host="app.diagrams.net" modified="2021-03-30T15:51:40.840Z" agent="5.0 (Macintosh; Intel Mac OS X 11_2_2) AppleWebKit/537.36 (KHTML, like Gecko) Chrome/89.0.4389.90 Safari/537.36" etag="rlZ9KbQK73f9QoXq_z3A" version="14.5.3" type="github">
  <diagram id="_rReVu5g_Auf4cNDGn35" name="New Device">
    <mxGraphModel dx="883" dy="1422" grid="1" gridSize="10" guides="1" tooltips="1" connect="1" arrows="1" fold="1" page="1" pageScale="1" pageWidth="827" pageHeight="1169" math="0" shadow="0">
      <root>
        <mxCell id="0" />
        <mxCell id="1" parent="0" />
        <mxCell id="6po-A100Z-l5aX3hD2p_-6" value="" style="edgeStyle=orthogonalEdgeStyle;rounded=0;orthogonalLoop=1;jettySize=auto;html=1;" parent="1" target="6po-A100Z-l5aX3hD2p_-5" edge="1">
          <mxGeometry relative="1" as="geometry">
            <mxPoint x="250" y="100" as="sourcePoint" />
          </mxGeometry>
        </mxCell>
        <mxCell id="6po-A100Z-l5aX3hD2p_-9" value="" style="edgeStyle=orthogonalEdgeStyle;rounded=0;orthogonalLoop=1;jettySize=auto;html=1;" parent="1" source="6po-A100Z-l5aX3hD2p_-5" target="6po-A100Z-l5aX3hD2p_-8" edge="1">
          <mxGeometry relative="1" as="geometry" />
        </mxCell>
        <mxCell id="6po-A100Z-l5aX3hD2p_-5" value="Check for Existing Settings File" style="rounded=0;whiteSpace=wrap;html=1;" parent="1" vertex="1">
          <mxGeometry x="190" y="130" width="120" height="60" as="geometry" />
        </mxCell>
        <mxCell id="6po-A100Z-l5aX3hD2p_-7" value="Power On" style="rounded=1;whiteSpace=wrap;html=1;arcSize=50;fillColor=#dae8fc;strokeColor=#6c8ebf;" parent="1" vertex="1">
          <mxGeometry x="190" y="40" width="120" height="60" as="geometry" />
        </mxCell>
        <mxCell id="6po-A100Z-l5aX3hD2p_-11" value="No" style="edgeStyle=orthogonalEdgeStyle;rounded=0;orthogonalLoop=1;jettySize=auto;html=1;entryX=0;entryY=0.5;entryDx=0;entryDy=0;" parent="1" source="6po-A100Z-l5aX3hD2p_-8" target="5w6-nihi4L7VhGELpMjX-3" edge="1">
          <mxGeometry relative="1" as="geometry">
            <mxPoint x="350" y="260" as="targetPoint" />
          </mxGeometry>
        </mxCell>
        <mxCell id="6po-A100Z-l5aX3hD2p_-13" value="Yes" style="edgeStyle=orthogonalEdgeStyle;rounded=0;orthogonalLoop=1;jettySize=auto;html=1;" parent="1" source="6po-A100Z-l5aX3hD2p_-8" edge="1">
          <mxGeometry relative="1" as="geometry">
            <mxPoint x="150" y="260" as="targetPoint" />
          </mxGeometry>
        </mxCell>
        <mxCell id="6po-A100Z-l5aX3hD2p_-8" value="Settings File Exists" style="rhombus;whiteSpace=wrap;html=1;rounded=0;" parent="1" vertex="1">
          <mxGeometry x="205" y="215" width="90" height="90" as="geometry" />
        </mxCell>
        <mxCell id="5w6-nihi4L7VhGELpMjX-12" value="" style="edgeStyle=orthogonalEdgeStyle;rounded=0;orthogonalLoop=1;jettySize=auto;html=1;" edge="1" parent="1" source="5w6-nihi4L7VhGELpMjX-3" target="5w6-nihi4L7VhGELpMjX-9">
          <mxGeometry relative="1" as="geometry" />
        </mxCell>
        <mxCell id="5w6-nihi4L7VhGELpMjX-3" value="&lt;meta charset=&quot;utf-8&quot;&gt;&lt;span style=&quot;color: rgb(0, 0, 0); font-family: helvetica; font-size: 12px; font-style: normal; font-weight: 400; letter-spacing: normal; text-align: center; text-indent: 0px; text-transform: none; word-spacing: 0px; background-color: rgb(248, 249, 250); display: inline; float: none;&quot;&gt;Create UUID&lt;/span&gt;" style="shape=parallelogram;perimeter=parallelogramPerimeter;whiteSpace=wrap;html=1;fixedSize=1;" vertex="1" parent="1">
          <mxGeometry x="350" y="230" width="120" height="60" as="geometry" />
        </mxCell>
        <mxCell id="5w6-nihi4L7VhGELpMjX-21" style="edgeStyle=orthogonalEdgeStyle;rounded=0;orthogonalLoop=1;jettySize=auto;html=1;exitX=1;exitY=0.5;exitDx=0;exitDy=0;entryX=0;entryY=0.5;entryDx=0;entryDy=0;dashed=1;dashPattern=1 1;strokeWidth=2;" edge="1" parent="1" source="5w6-nihi4L7VhGELpMjX-5" target="5w6-nihi4L7VhGELpMjX-17">
          <mxGeometry relative="1" as="geometry" />
        </mxCell>
        <mxCell id="5w6-nihi4L7VhGELpMjX-5" value="Send UUID to server&amp;nbsp;" style="whiteSpace=wrap;html=1;" vertex="1" parent="1">
          <mxGeometry x="350" y="460" width="120" height="60" as="geometry" />
        </mxCell>
        <mxCell id="5w6-nihi4L7VhGELpMjX-13" value="" style="edgeStyle=orthogonalEdgeStyle;rounded=0;orthogonalLoop=1;jettySize=auto;html=1;" edge="1" parent="1" source="5w6-nihi4L7VhGELpMjX-9">
          <mxGeometry relative="1" as="geometry">
            <mxPoint x="410" y="420" as="targetPoint" />
          </mxGeometry>
        </mxCell>
        <mxCell id="5w6-nihi4L7VhGELpMjX-9" value="Launch&lt;br&gt;MQTT Services" style="whiteSpace=wrap;html=1;" vertex="1" parent="1">
          <mxGeometry x="350" y="320" width="120" height="60" as="geometry" />
        </mxCell>
        <mxCell id="5w6-nihi4L7VhGELpMjX-11" value="Run App" style="rounded=1;whiteSpace=wrap;html=1;arcSize=50;fillColor=#dae8fc;strokeColor=#6c8ebf;" vertex="1" parent="1">
          <mxGeometry x="30" y="230" width="120" height="60" as="geometry" />
        </mxCell>
        <mxCell id="5w6-nihi4L7VhGELpMjX-35" style="edgeStyle=none;rounded=0;orthogonalLoop=1;jettySize=auto;html=1;exitX=1;exitY=0.5;exitDx=0;exitDy=0;dashed=1;dashPattern=1 1;strokeWidth=2;" edge="1" parent="1" source="5w6-nihi4L7VhGELpMjX-14" target="5w6-nihi4L7VhGELpMjX-34">
          <mxGeometry relative="1" as="geometry" />
        </mxCell>
        <mxCell id="5w6-nihi4L7VhGELpMjX-14" value="Send img to server&amp;nbsp;" style="whiteSpace=wrap;html=1;" vertex="1" parent="1">
          <mxGeometry x="350" y="550" width="120" height="60" as="geometry" />
        </mxCell>
        <mxCell id="5w6-nihi4L7VhGELpMjX-20" style="rounded=0;orthogonalLoop=1;jettySize=auto;html=1;exitX=0.25;exitY=1;exitDx=0;exitDy=0;dashed=1;dashPattern=1 1;strokeWidth=2;entryX=1;entryY=0.25;entryDx=0;entryDy=0;" edge="1" parent="1" source="5w6-nihi4L7VhGELpMjX-17" target="5w6-nihi4L7VhGELpMjX-14">
          <mxGeometry relative="1" as="geometry">
            <mxPoint x="490" y="570" as="targetPoint" />
          </mxGeometry>
        </mxCell>
        <mxCell id="5w6-nihi4L7VhGELpMjX-17" value="Store UUID &amp;amp; requests img&amp;nbsp;" style="rounded=0;whiteSpace=wrap;html=1;" vertex="1" parent="1">
          <mxGeometry x="560" y="460" width="120" height="60" as="geometry" />
        </mxCell>
        <mxCell id="5w6-nihi4L7VhGELpMjX-22" value="&lt;font style=&quot;font-size: 14px&quot;&gt;&lt;u&gt;Client (MQTT)&lt;/u&gt;&lt;/font&gt;" style="text;html=1;align=center;verticalAlign=middle;whiteSpace=wrap;rounded=0;shadow=0;fontColor=#333333;fillColor=#ffffff;" vertex="1" parent="1">
          <mxGeometry x="390" y="430" width="50" height="20" as="geometry" />
        </mxCell>
        <mxCell id="5w6-nihi4L7VhGELpMjX-24" value="&lt;font style=&quot;font-size: 14px&quot;&gt;&lt;u&gt;Server (MQTT)&lt;/u&gt;&lt;/font&gt;" style="text;html=1;strokeColor=none;fillColor=none;align=center;verticalAlign=middle;whiteSpace=wrap;rounded=0;" vertex="1" parent="1">
          <mxGeometry x="600" y="430" width="40" height="20" as="geometry" />
        </mxCell>
        <mxCell id="5w6-nihi4L7VhGELpMjX-28" value="" style="edgeStyle=none;rounded=0;orthogonalLoop=1;jettySize=auto;html=1;strokeWidth=2;" edge="1" parent="1" source="5w6-nihi4L7VhGELpMjX-25" target="5w6-nihi4L7VhGELpMjX-27">
          <mxGeometry relative="1" as="geometry" />
        </mxCell>
        <mxCell id="5w6-nihi4L7VhGELpMjX-44" style="edgeStyle=none;rounded=0;orthogonalLoop=1;jettySize=auto;html=1;exitX=0;exitY=0.5;exitDx=0;exitDy=0;dashed=1;dashPattern=1 1;strokeWidth=2;" edge="1" parent="1" source="5w6-nihi4L7VhGELpMjX-25" target="5w6-nihi4L7VhGELpMjX-29">
          <mxGeometry relative="1" as="geometry" />
        </mxCell>
        <mxCell id="5w6-nihi4L7VhGELpMjX-25" value="Define Gates and communicate them. Send Gates &amp;amp; &lt;br&gt;Img to DB" style="rounded=0;whiteSpace=wrap;html=1;shadow=0;strokeColor=#000000;fillColor=#ffffff;" vertex="1" parent="1">
          <mxGeometry x="565" y="670" width="120" height="60" as="geometry" />
        </mxCell>
        <mxCell id="5w6-nihi4L7VhGELpMjX-27" value="Store Img &amp;amp; Gates" style="shape=cylinder3;whiteSpace=wrap;html=1;boundedLbl=1;backgroundOutline=1;size=15;rounded=0;shadow=0;strokeColor=#000000;fillColor=#ffffff;" vertex="1" parent="1">
          <mxGeometry x="760" y="660" width="60" height="80" as="geometry" />
        </mxCell>
        <mxCell id="5w6-nihi4L7VhGELpMjX-46" style="edgeStyle=none;rounded=0;orthogonalLoop=1;jettySize=auto;html=1;exitX=0.5;exitY=1;exitDx=0;exitDy=0;strokeWidth=2;" edge="1" parent="1" source="5w6-nihi4L7VhGELpMjX-29" target="5w6-nihi4L7VhGELpMjX-45">
          <mxGeometry relative="1" as="geometry" />
        </mxCell>
        <mxCell id="5w6-nihi4L7VhGELpMjX-29" value="Store Gate information in &lt;br&gt;settings file &lt;br&gt;and save." style="whiteSpace=wrap;html=1;" vertex="1" parent="1">
          <mxGeometry x="350" y="670" width="120" height="60" as="geometry" />
        </mxCell>
        <mxCell id="5w6-nihi4L7VhGELpMjX-40" style="edgeStyle=none;rounded=0;orthogonalLoop=1;jettySize=auto;html=1;exitX=0.5;exitY=1;exitDx=0;exitDy=0;entryX=0.5;entryY=0;entryDx=0;entryDy=0;dashed=1;dashPattern=1 1;strokeWidth=2;" edge="1" parent="1" source="5w6-nihi4L7VhGELpMjX-34" target="5w6-nihi4L7VhGELpMjX-25">
          <mxGeometry relative="1" as="geometry" />
        </mxCell>
        <mxCell id="5w6-nihi4L7VhGELpMjX-41" value="YES" style="edgeLabel;html=1;align=center;verticalAlign=middle;resizable=0;points=[];" vertex="1" connectable="0" parent="5w6-nihi4L7VhGELpMjX-40">
          <mxGeometry x="-0.5556" y="-4" relative="1" as="geometry">
            <mxPoint x="4" y="5" as="offset" />
          </mxGeometry>
        </mxCell>
        <mxCell id="5w6-nihi4L7VhGELpMjX-42" style="edgeStyle=none;rounded=0;orthogonalLoop=1;jettySize=auto;html=1;exitX=0;exitY=1;exitDx=0;exitDy=0;entryX=0.992;entryY=0.867;entryDx=0;entryDy=0;entryPerimeter=0;dashed=1;dashPattern=1 1;strokeWidth=2;" edge="1" parent="1" source="5w6-nihi4L7VhGELpMjX-34" target="5w6-nihi4L7VhGELpMjX-14">
          <mxGeometry relative="1" as="geometry" />
        </mxCell>
        <mxCell id="5w6-nihi4L7VhGELpMjX-43" value="NO" style="edgeLabel;html=1;align=center;verticalAlign=middle;resizable=0;points=[];" vertex="1" connectable="0" parent="5w6-nihi4L7VhGELpMjX-42">
          <mxGeometry x="-0.1381" y="-4" relative="1" as="geometry">
            <mxPoint y="1.71" as="offset" />
          </mxGeometry>
        </mxCell>
        <mxCell id="5w6-nihi4L7VhGELpMjX-34" value="Is Img acceptable?" style="rhombus;whiteSpace=wrap;html=1;rounded=0;shadow=0;strokeColor=#000000;fillColor=#ffffff;" vertex="1" parent="1">
          <mxGeometry x="580" y="535" width="90" height="90" as="geometry" />
        </mxCell>
        <mxCell id="5w6-nihi4L7VhGELpMjX-45" value="Run App" style="rounded=1;whiteSpace=wrap;html=1;arcSize=50;fillColor=#dae8fc;strokeColor=#6c8ebf;" vertex="1" parent="1">
          <mxGeometry x="350" y="760" width="120" height="60" as="geometry" />
        </mxCell>
      </root>
    </mxGraphModel>
  </diagram>
</mxfile>
